<svg width="44" height="35" viewBox="0 0 44 35" fill="none" xmlns="http://www.w3.org/2000/svg">
<path d="M43.0916 13.5089C43.2872 10.9308 42.2594 8.32405 40.2343 6.26218C38.2092 4.20031 35.3528 2.85219 32.2933 2.51437C30.3047 2.29604 28.3174 2.51503 26.5247 3.15006C24.732 3.78508 23.1947 4.81454 22.0625 6.13833C21.1482 4.58836 19.7912 3.23922 18.1235 2.22209C16.4557 1.20496 14.5341 0.554483 12.5454 0.333905C9.48593 -0.00390767 6.47407 0.696265 4.1724 2.28039C1.87073 3.86452 0.467783 6.20284 0.272201 8.78095C0.179044 10.0089 0.372363 11.209 0.782626 12.3443C3.89552 22.011 19.9478 34.0136 19.9478 34.0136C19.9478 34.0136 37.5395 25.7258 42.0551 16.9014C42.6505 15.8489 43.0008 14.6985 43.0916 13.5089Z" fill="#7A1F30" stroke="#7A1F30" stroke-width="0.5" stroke-linecap="round" stroke-linejoin="round"/>
</svg>
