<svg width="384" height="687" viewBox="0 0 384 687" fill="none" xmlns="http://www.w3.org/2000/svg">
<path d="M181.795 0.793213L215.351 54.6482C219.89 61.9321 222.295 70.3425 222.295 78.9246C222.295 96.3111 212.078 111.721 198.15 122.129C194.275 125.025 190.617 128.144 187.795 131.293C176.428 143.979 170.272 153.021 167.295 169.793C165.252 181.308 169.097 195.947 173.27 207.37C175.632 213.834 184.143 212.869 185.624 206.149C186.699 201.267 182.71 196.815 177.876 198.091C174.098 199.088 170.045 200.587 167.295 202.793C161.059 207.796 160.314 217.407 161.434 226.599C163.268 241.657 174.659 253.176 188.078 260.251L189.791 261.154C209.783 271.696 222.295 292.439 222.295 315.039C222.295 330.912 216.1 346.157 205.029 357.531L184.939 378.168C173.626 389.79 167.295 405.369 167.295 421.588C167.295 443.97 179.311 464.628 198.765 475.695L208.154 481.036C211.373 482.868 214.362 485.078 217.055 487.619L230.433 500.239C235.926 505.422 237.775 513.394 235.123 520.465C234.057 523.308 232.316 525.85 230.051 527.871L229.101 528.719C224.718 532.631 219.048 534.793 213.174 534.793H202L175.633 531.904C168.918 531.168 162.129 531.467 155.504 532.792L133.308 537.232C126.822 538.529 121.331 542.816 118.5 548.793" stroke="#7A1F30" stroke-width="3"/>
<path d="M139.888 557.1C140.065 554.765 139.02 552.391 136.982 550.501C134.944 548.611 132.08 547.359 129.02 547.021C127.032 546.803 125.048 546.981 123.261 547.538C121.474 548.095 119.945 549.013 118.823 550.201C117.899 548.787 116.533 547.549 114.86 546.61C113.186 545.671 111.261 545.061 109.273 544.841C106.213 544.503 103.209 545.107 100.92 546.519C98.6313 547.932 97.246 550.037 97.0688 552.372C96.9845 553.484 97.1861 554.574 97.6041 555.608C100.783 564.404 116.908 575.451 116.908 575.451C116.908 575.451 134.427 568.118 138.877 560.165C139.464 559.217 139.806 558.178 139.888 557.1Z" stroke="#7A1F30" stroke-width="3" stroke-linecap="round" stroke-linejoin="round"/>
</svg>
