<svg width="44" height="33" viewBox="0 0 44 33" fill="none" xmlns="http://www.w3.org/2000/svg">
<path d="M43.0444 9.78888C42.7704 7.19271 41.2871 4.70287 38.9209 2.8671C36.5548 1.03133 33.4995 0 30.4272 0C28.4305 0.00123321 26.5143 0.439054 24.8648 1.2709C23.2153 2.10274 21.8886 3.30029 21.0139 4.74713C19.8335 3.30009 18.2538 2.10241 16.4284 1.27055C14.603 0.438701 12.594 0.000994587 10.5968 0C7.52453 0 4.68696 1.03133 2.7083 2.8671C0.729644 4.70287 -0.228011 7.19271 0.0460088 9.78888C0.176526 11.0255 0.58394 12.2026 1.19316 13.2911C6.00607 22.6014 23.9766 32.8177 23.9766 32.8177C23.9766 32.8177 39.7906 22.6014 42.6382 13.2911C43.0336 12.1744 43.1703 10.9869 43.0444 9.78888Z" fill="#F3B4B4"/>
</svg>
